<svg width="126" height="80" viewBox="0 0 126 80" fill="none" xmlns="http://www.w3.org/2000/svg">
<path d="M63.4343 32.1648V54.9999L40 36.5035V14.4839L63.4343 32.1648Z" fill="#D48700"/>
<path d="M86.9998 36.5035L63.4341 54.9999V32.1648L86.9669 14.4839L86.9998 36.5035Z" fill="#FFD300"/>
<path d="M63.4343 0L40 14.484L63.4343 32.1649L86.9671 14.484L63.4343 0Z" fill="#FDECA1"/>
<path d="M45.2476 14.6294L46.4748 15.5278L58.8 7.79646V6.198L45.2476 14.6294Z" fill="#FAD348"/>
<path d="M62.0537 8.22054L58.7998 6.198V7.79646L60.739 9.03607L62.0537 8.22054Z" fill="#AD852F"/>
<path d="M48.2494 16.8654L46.4746 15.5279L58.7998 7.79663L60.7389 9.03625L48.2494 16.8654Z" fill="#786803"/>
<path d="M49.6626 17.9093L53.278 15.6584V17.6157L51.1416 19.0224L49.6626 17.9093Z" fill="#FAD348"/>
<path d="M65.4064 26.8209L53.2785 17.6157L51.1421 19.0224L63.4015 28.2504L65.4064 26.8209Z" fill="#786803"/>
<path d="M66.7867 25.8364L65.4063 26.8209L53.2783 17.6157V15.6584L66.7867 25.8364Z" fill="#AD852F"/>
<path d="M64.749 22.3784L65.8994 23.2266L78.0471 14.0273L78.0602 12.3962L64.749 22.3784Z" fill="#FAD348"/>
<path d="M68.0358 24.7925L65.8994 23.2266L78.0471 14.0273L80.2952 15.5279L68.0358 24.7925Z" fill="#786803"/>
<path d="M81.5439 14.6145L80.295 15.5279L78.0469 14.0273L78.06 12.3962L81.5439 14.6145Z" fill="#AD852F"/>
<path d="M76.7455 11.5806L75.4965 12.4431L63.4316 4.92576V3.29468L76.7455 11.5806Z" fill="#AD852F"/>
<path d="M61.4947 6.13276L60.2129 5.34984L63.4312 3.29468V4.92576L61.4947 6.13276Z" fill="#FAD348"/>
<path d="M73.7217 13.6684L75.4965 12.4431L63.4316 4.92578L61.4951 6.13278L73.7217 13.6684Z" fill="#786803"/>
<path d="M63.4344 9.21875V11.1239L56.2365 15.9845L54.7246 14.908L63.4344 9.21875Z" fill="#FAD348"/>
<path d="M70.8621 15.8214L72.3411 14.7122L63.4341 9.21875V11.1239L70.8621 15.8214Z" fill="#AD852F"/>
<path d="M63.4671 21.3346L70.8622 15.8215L63.4342 11.124L56.2363 15.9846L63.4671 21.3346Z" fill="#786803"/>
<path d="M45.0942 35.4272L51.2075 31.8714L53.1164 31.3821L47.2963 34.9561L45.0942 35.4272Z" fill="#FAD348"/>
<path d="M54.4942 42.4407L56.7949 41.8516L47.2963 34.9561L45.0942 35.4271L54.4942 42.4407Z" fill="#FDECA1"/>
<path d="M51.2076 36.9276L57.5509 41.6577L56.795 41.8515L47.2964 34.9559L53.1165 31.3819L47.9537 27.7609V26.3582L57.3209 33.3718L51.2076 36.9276Z" fill="#786803"/>
<path d="M44.8643 27.1411L47.9538 26.3582V27.7609L46.2118 28.1458L44.8643 27.1411Z" fill="#FAD348"/>
<path d="M51.2077 31.8713L46.2119 28.1459L47.9539 27.761L53.1166 31.382L51.2077 31.8713Z" fill="#FDECA1"/>
<path d="M71.4046 41.2193C71.4046 41.2193 74.8944 38.6481 76.5673 37.0731C79.0449 34.742 80.1709 32.3971 80.2327 29.7182C80.2945 27.0394 80.0572 26.3373 79.5517 25.7932C79.1323 25.8774 77.8551 26.6818 76.2866 27.8118C74.0096 29.4521 71.4006 31.4942 71.4006 31.4942L71.394 42.012L71.4046 42.0035V41.2193Z" fill="#786803"/>
<path d="M73.0317 30.8926L74.938 31.3167L74.9709 37.6779L73.0317 37.306V30.8926Z" fill="#AD852F"/>
<path d="M77.9327 29.8245C77.9327 29.8245 76.8705 29.0586 75.7681 29.358C74.8787 29.5994 73.0303 30.8932 73.0303 30.8932L74.9366 31.3173C74.9366 31.3173 76.0166 30.5239 77.0927 29.8721C77.4095 29.6803 77.6961 29.6731 77.9327 29.8245Z" fill="#FDECA1"/>
<path d="M74.9375 31.3168L74.9704 37.678C74.9704 37.678 77.9895 36.0841 78.4543 33.3883C78.919 30.6924 78.1729 29.2199 77.0962 29.8717C76.0195 30.5234 74.9375 31.3168 74.9375 31.3168Z" fill="#FAD348"/>
<path d="M71.4043 41.2193C71.4043 41.2193 74.8942 38.6481 76.5671 37.0731C79.0446 34.742 80.1707 32.3971 80.2324 29.7182C80.2942 27.0394 80.0569 26.3373 79.5514 25.7932C79.5514 25.7932 81.135 25.2373 81.8521 26.9859C82.5693 28.7344 82.2209 33.0822 79.4022 36.4539C76.5835 39.8257 71.4004 43.0592 71.4004 43.0592L71.4043 41.2193Z" fill="#FDECA1"/>
<path fill-rule="evenodd" clip-rule="evenodd" d="M0 76.393C0.622834 77.2773 1.19916 77.8528 1.72898 78.1196C2.28287 78.3922 2.89987 78.53 3.5242 78.5203C4.58353 78.5203 5.4504 78.1847 6.12481 77.5134C6.79923 76.8421 7.13643 75.9539 7.13643 74.8486C7.13643 73.3498 6.50455 72.2903 5.24078 71.6702C5.85807 71.2173 6.23404 70.7887 6.36869 70.3842C6.50312 69.9813 6.57124 69.5613 6.57067 69.1388C6.57067 68.179 6.27019 67.4161 5.66922 66.8501C5.37885 66.5726 5.03162 66.3542 4.64882 66.2081C4.26602 66.0621 3.85571 65.9916 3.44306 66.0008C3.03304 66.0073 2.62633 66.0714 2.23621 66.1909C1.7995 66.3177 1.25493 66.7045 0.602485 67.3515L1.81483 68.8396C2.30144 68.3382 2.77576 68.0875 3.23778 68.0875C3.41312 68.0809 3.58784 68.1108 3.74962 68.1751C3.9114 68.2394 4.0563 68.3365 4.17407 68.4595C4.42277 68.7421 4.5492 69.1032 4.52797 69.4704C4.53878 69.6724 4.50699 69.8743 4.43446 70.0645C4.36193 70.2548 4.2501 70.4294 4.10549 70.5784C3.82384 70.8534 3.41115 70.9909 2.86741 70.9909H2.42657V73.0127H2.86741C3.7834 73.0127 4.38714 73.1745 4.67863 73.4979C4.97727 73.8408 5.13281 74.2752 5.11586 74.7192C5.13858 75.161 4.97727 75.5936 4.66654 75.9242C4.51546 76.0747 4.33215 76.193 4.12887 76.271C3.92559 76.3491 3.70702 76.3853 3.48778 76.3771C2.75593 76.3771 2.11746 75.9592 1.57236 75.1235L0 76.393ZM12.3579 78.2208H14.4452V73.0043H18.0529V78.2208H20.1323V66.3241H18.0529V70.8126H14.4446V66.3241H12.3573V78.2208H12.3579ZM24.9456 78.2208H27.0837L27.9625 75.7703H32.3725L33.2182 78.2208H35.3563L31.2002 66.3241H29.1137L24.9456 78.2208ZM31.6112 73.5623H28.7196L30.1697 69.4783L31.6112 73.5623ZM40.1739 78.2208H42.2533V72.9349L45.5854 78.2208H48.0256L43.8842 71.6335L47.6585 66.3241H45.1874L42.2527 70.4254V66.3241H40.1732V78.2208H40.1739ZM58.9171 66.3241L54.8317 74.0155V66.3241H52.7744V78.2208H54.5635L58.5943 70.7722V78.2208H60.6516V66.3241H58.9171ZM74.0009 76.0934H72.805V80H74.7962V78.2208H82.2321V80H84.2233V76.0934H83.0201L79.5436 66.3241H77.4642L74.0009 76.0934ZM80.8818 76.0934H76.1539L78.5215 69.4794L80.8818 76.0934ZM89.7741 78.2205H95.6741V75.9967H91.8166V72.8668H95.6741V70.6907H91.8166V68.5401H95.6741V66.3241H89.7741V78.2208V78.2205ZM110.999 78.2205L106.842 66.3241H104.755L100.584 78.2208H102.766L105.81 69.4737L108.802 78.221H110.999L110.999 78.2205ZM115.589 78.2205H117.727L118.606 75.77H123.016L123.862 78.2205H126L121.844 66.3241H119.756L115.589 78.2205ZM122.255 73.562H119.363L120.813 69.4783L122.255 73.562Z" fill="white"/>
</svg>
